<mxfile host="app.diagrams.net" modified="2023-03-08T15:29:00.553Z" agent="5.0 (Windows NT 10.0; Win64; x64) AppleWebKit/537.36 (KHTML, like Gecko) Chrome/110.0.0.0 Safari/537.36" etag="4dozb7iJm-VXN9trzbTg" version="20.8.20" type="github">
  <diagram name="Página-1" id="ffG99B30s7afe4pWfPRd">
    <mxGraphModel dx="1050" dy="587" grid="1" gridSize="10" guides="1" tooltips="1" connect="1" arrows="1" fold="1" page="1" pageScale="1" pageWidth="827" pageHeight="1169" math="0" shadow="0">
      <root>
        <mxCell id="0" />
        <mxCell id="1" parent="0" />
        <mxCell id="ZeIffu3BmpkmOB6br4T_-16" value="" style="edgeStyle=orthogonalEdgeStyle;rounded=0;orthogonalLoop=1;jettySize=auto;html=1;" edge="1" parent="1" source="ZeIffu3BmpkmOB6br4T_-2" target="ZeIffu3BmpkmOB6br4T_-6">
          <mxGeometry relative="1" as="geometry">
            <Array as="points">
              <mxPoint x="60" y="90" />
              <mxPoint x="60" y="90" />
            </Array>
          </mxGeometry>
        </mxCell>
        <mxCell id="ZeIffu3BmpkmOB6br4T_-2" value="Menu superior&lt;br&gt;&quot;Comece aqui&quot;" style="rounded=0;whiteSpace=wrap;html=1;" vertex="1" parent="1">
          <mxGeometry y="10" width="120" height="60" as="geometry" />
        </mxCell>
        <mxCell id="ZeIffu3BmpkmOB6br4T_-17" value="" style="edgeStyle=orthogonalEdgeStyle;rounded=0;orthogonalLoop=1;jettySize=auto;html=1;" edge="1" parent="1" source="ZeIffu3BmpkmOB6br4T_-3" target="ZeIffu3BmpkmOB6br4T_-5">
          <mxGeometry relative="1" as="geometry" />
        </mxCell>
        <mxCell id="ZeIffu3BmpkmOB6br4T_-3" value="Menu superior&lt;br style=&quot;border-color: var(--border-color);&quot;&gt;&quot;Faça seu Diagnóstico&quot;" style="rounded=0;whiteSpace=wrap;html=1;" vertex="1" parent="1">
          <mxGeometry x="150" y="10" width="120" height="60" as="geometry" />
        </mxCell>
        <mxCell id="ZeIffu3BmpkmOB6br4T_-18" value="" style="edgeStyle=orthogonalEdgeStyle;rounded=0;orthogonalLoop=1;jettySize=auto;html=1;" edge="1" parent="1" source="ZeIffu3BmpkmOB6br4T_-4" target="ZeIffu3BmpkmOB6br4T_-8">
          <mxGeometry relative="1" as="geometry" />
        </mxCell>
        <mxCell id="ZeIffu3BmpkmOB6br4T_-4" value="Menu superior&lt;br style=&quot;border-color: var(--border-color);&quot;&gt;&quot;Trilhas recomendadas&quot;" style="rounded=0;whiteSpace=wrap;html=1;" vertex="1" parent="1">
          <mxGeometry x="280" y="10" width="120" height="60" as="geometry" />
        </mxCell>
        <mxCell id="ZeIffu3BmpkmOB6br4T_-5" value="Página interna&lt;br&gt;- Texto sobre o diagnóstico;&lt;br&gt;- Teaser sobre o diagnóstico&lt;br&gt;- Botão de acesso ao diagnóstico" style="rounded=0;whiteSpace=wrap;html=1;" vertex="1" parent="1">
          <mxGeometry x="150" y="120" width="120" height="130" as="geometry" />
        </mxCell>
        <mxCell id="ZeIffu3BmpkmOB6br4T_-6" value="Página interna&lt;br&gt;- Saudação usuário&lt;br&gt;- Texto como começar&amp;nbsp;&lt;br&gt;- Teaser sobre o programa&lt;br&gt;- Exemplo de trilhas (estático)" style="rounded=0;whiteSpace=wrap;html=1;" vertex="1" parent="1">
          <mxGeometry y="120" width="120" height="130" as="geometry" />
        </mxCell>
        <mxCell id="ZeIffu3BmpkmOB6br4T_-8" value="Página interna&lt;br&gt;-Texto sobre trilhas recomendadas&lt;br&gt;- Carrossel de trilhas recomendadas (dinâmico)&amp;nbsp;" style="rounded=0;whiteSpace=wrap;html=1;" vertex="1" parent="1">
          <mxGeometry x="280" y="120" width="120" height="100" as="geometry" />
        </mxCell>
        <mxCell id="ZeIffu3BmpkmOB6br4T_-41" value="" style="edgeStyle=orthogonalEdgeStyle;rounded=0;orthogonalLoop=1;jettySize=auto;html=1;" edge="1" parent="1" source="ZeIffu3BmpkmOB6br4T_-9" target="ZeIffu3BmpkmOB6br4T_-39">
          <mxGeometry relative="1" as="geometry" />
        </mxCell>
        <mxCell id="ZeIffu3BmpkmOB6br4T_-9" value="Menu superior&lt;br&gt;&lt;br&gt;Comunidade" style="rounded=0;whiteSpace=wrap;html=1;" vertex="1" parent="1">
          <mxGeometry x="1050" y="10" width="120" height="60" as="geometry" />
        </mxCell>
        <mxCell id="ZeIffu3BmpkmOB6br4T_-40" value="" style="edgeStyle=orthogonalEdgeStyle;rounded=0;orthogonalLoop=1;jettySize=auto;html=1;" edge="1" parent="1" source="ZeIffu3BmpkmOB6br4T_-10" target="ZeIffu3BmpkmOB6br4T_-37">
          <mxGeometry relative="1" as="geometry" />
        </mxCell>
        <mxCell id="ZeIffu3BmpkmOB6br4T_-10" value="Menu superior&lt;br&gt;Mentoria" style="rounded=0;whiteSpace=wrap;html=1;" vertex="1" parent="1">
          <mxGeometry x="900" y="10" width="120" height="60" as="geometry" />
        </mxCell>
        <mxCell id="ZeIffu3BmpkmOB6br4T_-42" value="" style="edgeStyle=orthogonalEdgeStyle;rounded=0;orthogonalLoop=1;jettySize=auto;html=1;" edge="1" parent="1" source="ZeIffu3BmpkmOB6br4T_-11" target="ZeIffu3BmpkmOB6br4T_-38">
          <mxGeometry relative="1" as="geometry" />
        </mxCell>
        <mxCell id="ZeIffu3BmpkmOB6br4T_-45" style="edgeStyle=orthogonalEdgeStyle;rounded=0;orthogonalLoop=1;jettySize=auto;html=1;entryX=0;entryY=0.5;entryDx=0;entryDy=0;" edge="1" parent="1" source="ZeIffu3BmpkmOB6br4T_-11" target="ZeIffu3BmpkmOB6br4T_-22">
          <mxGeometry relative="1" as="geometry">
            <Array as="points">
              <mxPoint x="580" y="40" />
              <mxPoint x="580" y="250" />
            </Array>
          </mxGeometry>
        </mxCell>
        <mxCell id="ZeIffu3BmpkmOB6br4T_-11" value="Menu superior&lt;br&gt;&quot;Cursos em parceria&quot;" style="rounded=0;whiteSpace=wrap;html=1;" vertex="1" parent="1">
          <mxGeometry x="600" y="10" width="120" height="60" as="geometry" />
        </mxCell>
        <mxCell id="ZeIffu3BmpkmOB6br4T_-19" value="" style="edgeStyle=orthogonalEdgeStyle;rounded=0;orthogonalLoop=1;jettySize=auto;html=1;" edge="1" parent="1" source="ZeIffu3BmpkmOB6br4T_-12" target="ZeIffu3BmpkmOB6br4T_-15">
          <mxGeometry relative="1" as="geometry" />
        </mxCell>
        <mxCell id="ZeIffu3BmpkmOB6br4T_-12" value="Menu superior&lt;br style=&quot;border-color: var(--border-color);&quot;&gt;&quot;Trilhas do programa&quot;" style="rounded=0;whiteSpace=wrap;html=1;" vertex="1" parent="1">
          <mxGeometry x="414" y="10" width="120" height="60" as="geometry" />
        </mxCell>
        <mxCell id="ZeIffu3BmpkmOB6br4T_-15" value="&lt;br&gt;Página interna&lt;br&gt;-Texto com resumo sobre a aba (texto sobre todas as trilhas)&lt;br&gt;- carrossel com todas as trilhas do programa" style="rounded=0;whiteSpace=wrap;html=1;" vertex="1" parent="1">
          <mxGeometry x="414" y="125" width="120" height="135" as="geometry" />
        </mxCell>
        <mxCell id="ZeIffu3BmpkmOB6br4T_-46" value="" style="edgeStyle=orthogonalEdgeStyle;rounded=0;orthogonalLoop=1;jettySize=auto;html=1;" edge="1" parent="1" source="ZeIffu3BmpkmOB6br4T_-22" target="ZeIffu3BmpkmOB6br4T_-44">
          <mxGeometry relative="1" as="geometry" />
        </mxCell>
        <mxCell id="ZeIffu3BmpkmOB6br4T_-22" value="Opção de menu&lt;br&gt;Nome do curso&lt;br&gt;(síncrono)&lt;br&gt;&amp;nbsp;" style="rounded=0;whiteSpace=wrap;html=1;" vertex="1" parent="1">
          <mxGeometry x="600" y="205" width="120" height="90" as="geometry" />
        </mxCell>
        <mxCell id="ZeIffu3BmpkmOB6br4T_-23" value="Página interna&lt;br&gt;- Texto com resumo sobre o curso&amp;nbsp;&lt;br&gt;- acesso ao curso na plataforma cesar&amp;nbsp;&amp;nbsp;" style="rounded=0;whiteSpace=wrap;html=1;" vertex="1" parent="1">
          <mxGeometry x="760" y="75" width="120" height="90" as="geometry" />
        </mxCell>
        <mxCell id="ZeIffu3BmpkmOB6br4T_-36" value="Opção de menu&lt;br&gt;- Agendamento de sessões" style="rounded=0;whiteSpace=wrap;html=1;" vertex="1" parent="1">
          <mxGeometry x="900" y="95" width="120" height="60" as="geometry" />
        </mxCell>
        <mxCell id="ZeIffu3BmpkmOB6br4T_-37" value="Página interna&lt;br&gt;- Agenda" style="rounded=0;whiteSpace=wrap;html=1;" vertex="1" parent="1">
          <mxGeometry x="920" y="170" width="120" height="60" as="geometry" />
        </mxCell>
        <mxCell id="ZeIffu3BmpkmOB6br4T_-43" value="" style="edgeStyle=orthogonalEdgeStyle;rounded=0;orthogonalLoop=1;jettySize=auto;html=1;" edge="1" parent="1" source="ZeIffu3BmpkmOB6br4T_-38" target="ZeIffu3BmpkmOB6br4T_-23">
          <mxGeometry relative="1" as="geometry" />
        </mxCell>
        <mxCell id="ZeIffu3BmpkmOB6br4T_-38" value="Opção de menu&lt;br&gt;7x&lt;br&gt;&quot;Nome do curso&quot;" style="rounded=0;whiteSpace=wrap;html=1;" vertex="1" parent="1">
          <mxGeometry x="600" y="90" width="120" height="60" as="geometry" />
        </mxCell>
        <mxCell id="ZeIffu3BmpkmOB6br4T_-39" value="- Texto sobre comunidade&lt;br&gt;- Botão de acesso ao Whatsapp" style="rounded=0;whiteSpace=wrap;html=1;" vertex="1" parent="1">
          <mxGeometry x="1050" y="95" width="120" height="60" as="geometry" />
        </mxCell>
        <mxCell id="ZeIffu3BmpkmOB6br4T_-44" value="Página interna&lt;br&gt;- Texto com resumo sobre o curso&amp;nbsp;&lt;br&gt;- acesso ao curso na plataforma cesar&amp;nbsp;&amp;nbsp;&lt;br&gt;- agendamento na plataforma cesar" style="rounded=0;whiteSpace=wrap;html=1;" vertex="1" parent="1">
          <mxGeometry x="760" y="190" width="120" height="120" as="geometry" />
        </mxCell>
      </root>
    </mxGraphModel>
  </diagram>
</mxfile>
